<svg width="480" height="61" viewBox="0 0 480 61" fill="none" xmlns="http://www.w3.org/2000/svg">
<path d="M151.311 55.4277C148.222 55.4277 145.489 55.0713 143.113 54.3584C140.785 53.6456 138.789 52.3388 137.125 50.4379C135.51 48.537 134.274 45.8282 133.419 42.3115C132.611 38.7474 132.207 34.1377 132.207 28.4826C132.207 23.0175 132.634 18.5504 133.49 15.0813C134.393 11.5646 135.676 8.85592 137.339 6.95502C139.002 5.00652 141.022 3.65222 143.398 2.89182C145.774 2.13142 148.459 1.75132 151.453 1.75132C153.829 1.75132 156.039 1.89382 158.083 2.17902C160.174 2.41662 162.051 2.72552 163.714 3.10572C165.377 3.43832 166.779 3.81852 167.92 4.24622V12.4438C167.064 12.2537 165.9 12.0636 164.427 11.8735C163.001 11.6834 161.362 11.5409 159.508 11.4458C157.655 11.3033 155.707 11.232 153.663 11.232C151.667 11.232 149.956 11.4696 148.531 11.9448C147.153 12.3725 146.036 13.2041 145.18 14.4397C144.372 15.6278 143.755 17.3623 143.327 19.6434C142.947 21.9245 142.757 24.8946 142.757 28.5538C142.757 32.0705 142.923 34.9694 143.256 37.2504C143.636 39.5315 144.23 41.3136 145.038 42.5967C145.846 43.8323 146.939 44.7114 148.317 45.2342C149.742 45.7094 151.525 45.947 153.663 45.947C157.275 45.947 160.197 45.8757 162.431 45.7332C164.712 45.5906 166.542 45.4243 167.92 45.2342V53.3605C166.637 53.7882 165.163 54.1684 163.5 54.501C161.837 54.7861 160.007 55 158.011 55.1426C156.015 55.3327 153.782 55.4277 151.311 55.4277ZM190.529 55.3564C187.392 55.3564 184.707 55.0475 182.474 54.4297C180.24 53.7644 178.411 52.6714 176.985 51.1507C175.607 49.63 174.585 47.6103 173.92 45.0916C173.302 42.5729 172.993 39.4602 172.993 35.7535C172.993 31.8566 173.302 28.6489 173.92 26.1302C174.585 23.564 175.607 21.5681 176.985 20.1424C178.411 18.6692 180.24 17.6475 182.474 17.0772C184.755 16.4594 187.44 16.1505 190.529 16.1505C193.713 16.1505 196.422 16.4594 198.655 17.0772C200.889 17.695 202.695 18.7405 204.073 20.2137C205.498 21.6393 206.52 23.6353 207.138 26.2015C207.803 28.7202 208.136 31.9042 208.136 35.7535C208.136 39.5553 207.827 42.7392 207.209 45.3055C206.591 47.8241 205.593 49.8201 204.215 51.2933C202.837 52.7665 201.008 53.8119 198.726 54.4297C196.493 55.0475 193.76 55.3564 190.529 55.3564ZM190.529 46.945C191.812 46.945 192.881 46.8262 193.737 46.5886C194.64 46.3509 195.352 45.8757 195.875 45.1629C196.445 44.4025 196.873 43.262 197.158 41.7413C197.443 40.2206 197.586 38.2246 197.586 35.7535C197.586 33.2348 197.443 31.2389 197.158 29.7657C196.873 28.2449 196.445 27.1282 195.875 26.4153C195.352 25.655 194.64 25.156 193.737 24.9184C192.881 24.6808 191.812 24.562 190.529 24.562C189.293 24.562 188.224 24.6808 187.321 24.9184C186.466 25.156 185.753 25.655 185.183 26.4153C184.612 27.1282 184.185 28.2449 183.9 29.7657C183.662 31.2389 183.543 33.2348 183.543 35.7535C183.543 38.2246 183.662 40.2206 183.9 41.7413C184.185 43.262 184.612 44.4025 185.183 45.1629C185.753 45.8757 186.466 46.3509 187.321 46.5886C188.224 46.8262 189.293 46.945 190.529 46.945ZM225.971 55.4277C222.549 55.4277 219.864 54.4297 217.916 52.4338C215.967 50.3903 214.993 47.5152 214.993 43.8085V16.7208H225.543V40.672C225.543 42.8105 226.042 44.26 227.04 45.0203C228.085 45.7332 229.44 46.0896 231.103 46.0896C232.434 46.0896 233.788 45.852 235.166 45.3767C236.592 44.854 237.851 44.1649 238.944 43.3095V16.7208H249.565V55H240.798L238.944 51.0794C237.233 52.2199 235.261 53.2417 233.028 54.1446C230.794 55 228.442 55.4277 225.971 55.4277ZM257.53 55V16.7208H265.656L268.08 22.566C269.458 20.8077 271.002 19.3108 272.713 18.0752C274.471 16.8396 276.539 16.2218 278.915 16.2218C279.438 16.2218 279.96 16.2456 280.483 16.2931C281.053 16.3406 281.576 16.4357 282.051 16.5782V27.4133C281.338 27.3183 280.578 27.247 279.77 27.1995C279.01 27.1044 278.273 27.0569 277.56 27.0569C276.182 27.0569 274.923 27.2232 273.782 27.5559C272.689 27.841 271.668 28.2925 270.717 28.9103C269.814 29.4805 268.935 30.2409 268.08 31.1913V55H257.53ZM301.572 55.4277C300.384 55.4277 299.101 55.3802 297.723 55.2851C296.345 55.2376 294.967 55.1426 293.589 55C292.21 54.8574 290.927 54.6911 289.739 54.501C288.551 54.2634 287.553 54.002 286.745 53.7169V47.5152H303.711C304.709 47.5152 305.517 47.444 306.134 47.3014C306.8 47.1113 307.275 46.8024 307.56 46.3747C307.893 45.8995 308.059 45.2342 308.059 44.3788V43.1669C308.059 42.2165 307.75 41.4799 307.132 40.9572C306.515 40.4344 305.374 40.173 303.711 40.173H297.723C295.537 40.173 293.565 39.8404 291.806 39.1751C290.048 38.5098 288.646 37.4168 287.601 35.896C286.603 34.3753 286.104 32.3319 286.104 29.7657V27.5559C286.104 25.1322 286.579 23.0888 287.529 21.4255C288.48 19.7622 290.072 18.5029 292.305 17.6475C294.539 16.7921 297.604 16.3644 301.501 16.3644C303.069 16.3644 304.733 16.4594 306.491 16.6495C308.297 16.7921 309.984 17.0059 311.552 17.2911C313.168 17.5287 314.451 17.8138 315.401 18.1465V24.3481H299.363C297.984 24.3481 296.939 24.5857 296.226 25.061C295.513 25.4887 295.157 26.3203 295.157 27.5559V28.6964C295.157 29.5518 295.323 30.1934 295.656 30.6211C295.988 31.0012 296.487 31.2864 297.153 31.4765C297.866 31.619 298.745 31.6903 299.79 31.6903H305.921C309.817 31.6903 312.645 32.5932 314.403 34.3991C316.209 36.1574 317.112 38.6048 317.112 41.7413V45.1629C317.112 47.7291 316.494 49.7725 315.259 51.2933C314.071 52.7665 312.312 53.8357 309.984 54.501C307.703 55.1188 304.899 55.4277 301.572 55.4277ZM339.772 55.3564C335.542 55.3564 332.168 54.8099 329.65 53.7169C327.131 52.5764 325.301 50.5804 324.161 47.7291C323.068 44.8778 322.521 40.9334 322.521 35.896C322.521 30.7161 323.044 26.7005 324.09 23.8491C325.135 20.9978 326.893 19.0019 329.365 17.8613C331.836 16.7208 335.186 16.1505 339.415 16.1505C343.217 16.1505 346.259 16.5307 348.54 17.2911C350.821 18.0514 352.46 19.382 353.458 21.2829C354.504 23.1838 355.027 25.8688 355.027 29.338C355.027 31.9042 354.504 33.9476 353.458 35.4683C352.46 36.9415 351.035 38.0108 349.181 38.6761C347.328 39.2939 345.142 39.6028 342.623 39.6028H333C333.095 41.5512 333.38 43.1194 333.855 44.3075C334.378 45.448 335.305 46.2797 336.635 46.8024C338.014 47.2776 339.986 47.5152 342.552 47.5152H353.743V53.7169C351.89 54.0971 349.847 54.4773 347.613 54.8574C345.427 55.1901 342.813 55.3564 339.772 55.3564ZM332.857 33.3298H341.554C342.98 33.3298 344.025 33.0447 344.69 32.4744C345.356 31.9042 345.688 30.8824 345.688 29.4092C345.688 28.0311 345.475 26.9381 345.047 26.1302C344.619 25.2748 343.954 24.6808 343.051 24.3481C342.148 23.9679 340.936 23.7779 339.415 23.7779C337.8 23.7779 336.517 24.063 335.566 24.6333C334.616 25.156 333.927 26.1064 333.499 27.4846C333.071 28.8627 332.857 30.8112 332.857 33.3298ZM362.876 55V0.610718H370.004V20.9978C371.667 19.7622 373.687 18.6692 376.063 17.7188C378.439 16.7208 380.886 16.2218 383.405 16.2218C386.161 16.2218 388.395 16.7921 390.106 17.9326C391.864 19.0731 393.147 20.6414 393.955 22.6373C394.763 24.5857 395.167 26.7955 395.167 29.2667V55H388.039V30.1221C388.039 28.6489 387.73 27.3658 387.112 26.2728C386.542 25.1322 385.71 24.2531 384.617 23.6353C383.571 23.0175 382.312 22.7086 380.839 22.7086C379.413 22.7086 378.083 22.8512 376.847 23.1363C375.659 23.4214 374.518 23.8254 373.425 24.3481C372.332 24.8709 371.192 25.4649 370.004 26.1302V55H362.876ZM416.113 55.4277C412.549 55.4277 409.769 54.4773 407.773 52.5764C405.825 50.6279 404.85 47.6816 404.85 43.7372V16.8634H411.979V41.8126C411.979 44.6639 412.62 46.5886 413.903 47.5865C415.234 48.5845 417.087 49.0835 419.463 49.0835C421.364 49.0835 423.17 48.7983 424.881 48.2281C426.639 47.6103 428.35 46.7786 430.013 45.7332V16.8634H437.142V55H431.439L430.013 50.9368C428.16 52.1249 426.022 53.1704 423.598 54.0733C421.222 54.9762 418.727 55.4277 416.113 55.4277ZM466.357 55.4277C464.598 55.4277 462.959 55.2139 461.438 54.7861C459.965 54.3584 458.611 53.8357 457.375 53.2179C456.187 52.5526 455.094 51.8873 454.096 51.222L452.813 55H446.968V0.610718H454.096V20.0711C455.854 19.1207 457.803 18.2653 459.941 17.5049C462.127 16.7446 464.147 16.3644 466 16.3644C469.137 16.3644 471.703 17.0297 473.699 18.3603C475.695 19.6434 477.168 21.7344 478.119 24.6333C479.117 27.5321 479.616 31.4052 479.616 36.2525C479.616 40.2918 479.164 43.761 478.261 46.6598C477.358 49.5112 475.933 51.6972 473.984 53.2179C472.036 54.6911 469.493 55.4277 466.357 55.4277ZM463.862 49.5112C465.715 49.5112 467.26 49.0597 468.495 48.1568C469.778 47.2063 470.753 45.7332 471.418 43.7372C472.131 41.6938 472.487 39.08 472.487 35.896C472.487 31.9992 472.107 29.0766 471.347 27.1282C470.586 25.1798 469.565 23.8729 468.281 23.2076C466.998 22.5423 465.525 22.2096 463.862 22.2096C461.961 22.2096 460.226 22.4948 458.658 23.065C457.137 23.5878 455.617 24.2531 454.096 25.061V46.8024C455.379 47.4677 456.829 48.0855 458.444 48.6558C460.06 49.226 461.866 49.5112 463.862 49.5112Z" fill="#2F2F68"/>
<mask id="mask0_25_39" style="mask-type:luminance" maskUnits="userSpaceOnUse" x="0" y="14" width="116" height="47">
<path d="M116 14H0V60.2586H116V14Z" fill="white"/>
</mask>
<g mask="url(#mask0_25_39)">
<path d="M53.6944 14C54.8418 13.9997 55.9723 14.2759 56.9903 14.8051C58.0083 15.3343 58.8839 16.1009 59.5429 17.0401L88.3758 58.2228C88.8137 58.8512 89.3974 59.3639 90.077 59.7171C90.7565 60.0703 91.5115 60.2535 92.2774 60.2509H32.6762C31.9108 60.2539 31.1562 60.0708 30.4772 59.7176C29.7983 59.3643 29.2153 58.8513 28.7785 58.2228L0.440024 17.747C0.190463 17.3917 0.0429057 16.9748 0.0133364 16.5415C-0.016233 16.1083 0.0733147 15.6752 0.272276 15.2893C0.471237 14.9033 0.772026 14.5791 1.14206 14.3518C1.51209 14.1246 1.93725 14.0029 2.37149 14H53.6944Z" fill="#FF696B"/>
<path d="M57.816 20.4009H109.127C109.563 20.4003 109.991 20.5194 110.364 20.7452C110.736 20.9711 111.04 21.295 111.241 21.6816C111.443 22.0682 111.534 22.5027 111.505 22.9376C111.476 23.3725 111.329 23.7912 111.078 24.1479L93.834 48.778C93.1731 49.7154 92.2963 50.4799 91.2777 51.007C90.2591 51.5342 89.1286 51.8084 87.9816 51.8065H36.6703C36.2361 51.8036 35.8109 51.682 35.4409 51.4547C35.0709 51.2274 34.7701 50.9033 34.5711 50.5173C34.3721 50.1313 34.2826 49.6982 34.3122 49.265C34.3417 48.8317 34.4893 48.4148 34.7389 48.0595L51.983 23.4333C52.6416 22.4979 53.5151 21.7342 54.5301 21.2065C55.5451 20.6788 56.672 20.4026 57.816 20.4009Z" fill="#F9F6F1"/>
<path d="M15.8232 23.8505C15.4617 23.5973 15.2155 23.211 15.1387 22.7764C15.0619 22.3418 15.1608 21.8944 15.4137 21.5327L15.9159 20.8142C16.1697 20.4536 16.556 20.208 16.9903 20.1313C17.4246 20.0546 17.8716 20.1529 18.2336 20.4048C18.5943 20.6586 18.8399 21.0448 18.9166 21.4791C18.9933 21.9135 18.895 22.3605 18.6431 22.7225L18.1409 23.441C17.8878 23.8025 17.5014 24.0487 17.0668 24.1255C16.6322 24.2023 16.1849 24.1034 15.8232 23.8505Z" fill="#F9F6F1"/>
<path d="M20.3041 30.2552C19.9434 30.0014 19.6979 29.6151 19.6212 29.1808C19.5444 28.7465 19.6427 28.2995 19.8946 27.9375L24.8817 20.8142C25.1355 20.4536 25.5218 20.208 25.9561 20.1313C26.3904 20.0546 26.8374 20.1529 27.1994 20.4048C27.5601 20.6586 27.8056 21.0448 27.8823 21.4791C27.9591 21.9135 27.8608 22.3605 27.6089 22.7225L22.6218 29.8458C22.368 30.2064 21.9818 30.452 21.5474 30.5287C21.1131 30.6054 20.6661 30.5071 20.3041 30.2552Z" fill="#F9F6F1"/>
<path d="M24.7763 36.6561C24.4148 36.4029 24.1686 36.0166 24.0918 35.582C24.015 35.1474 24.1139 34.7 24.3668 34.3383L33.8349 20.8181C34.0887 20.4574 34.475 20.2119 34.9093 20.1351C35.3436 20.0584 35.7906 20.1567 36.1526 20.4086C36.5133 20.6624 36.7588 21.0487 36.8356 21.483C36.9123 21.9173 36.814 22.3643 36.5621 22.7264L27.0941 36.2466C26.8402 36.6073 26.454 36.8528 26.0197 36.9295C25.5854 37.0063 25.1383 36.908 24.7763 36.6561Z" fill="#F9F6F1"/>
<path d="M29.2689 43.057C28.9083 42.8032 28.6627 42.4169 28.586 41.9826C28.5093 41.5483 28.6076 41.1013 28.8595 40.7392L42.8124 20.8142C43.0662 20.4536 43.4525 20.208 43.8868 20.1313C44.3211 20.0546 44.7681 20.1529 45.1301 20.4048C45.4908 20.6586 45.7363 21.0448 45.8131 21.4791C45.8898 21.9135 45.7915 22.3605 45.5396 22.7225L31.5867 42.6475C31.3329 43.0082 30.9466 43.2537 30.5123 43.3304C30.078 43.4072 29.631 43.3089 29.2689 43.057Z" fill="#F9F6F1"/>
<path d="M113.624 26.8018C114.058 26.8047 114.483 26.9263 114.853 27.1536C115.223 27.3808 115.524 27.705 115.723 28.091C115.922 28.477 116.011 28.9101 115.982 29.3433C115.952 29.7765 115.805 30.1934 115.555 30.5488L96.1747 58.2267C95.7372 58.8555 95.1536 59.3686 94.474 59.7219C93.7943 60.0751 93.0391 60.258 92.2731 60.2547H32.6758C33.4417 60.258 34.197 60.0751 34.8767 59.7219C35.5563 59.3686 36.1399 58.8555 36.5773 58.2267L56.4521 29.8496C57.1109 28.9087 57.9867 28.1404 59.0055 27.6098C60.0242 27.0793 61.1558 26.8021 62.3045 26.8018H113.624Z" fill="#2F2F68"/>
<path d="M66.3809 26.8018L88.3803 58.2267C88.82 58.8531 89.4041 59.3645 90.0832 59.7175C90.7623 60.0705 91.5164 60.2548 92.2818 60.2548C93.0472 60.2548 93.8013 60.0705 94.4804 59.7175C95.1595 59.3645 95.7436 58.8531 96.1834 58.2267L115.556 30.5604C115.806 30.205 115.953 29.7881 115.983 29.3549C116.012 28.9217 115.923 28.4886 115.724 28.1026C115.525 27.7166 115.224 27.3924 114.854 27.1652C114.484 26.9379 114.059 26.8162 113.625 26.8133L66.3809 26.8018Z" fill="#FFDC6C"/>
</g>
</svg>
